<svg id="Layer_1" data-name="Layer 1" xmlns="http://www.w3.org/2000/svg" viewBox="0 0 97.75 95.7"><defs><style>.cls-1{fill:#cf1f43;}.cls-2{fill:#757677;}.cls-3{fill:none;stroke:#cf1f43;stroke-miterlimit:10;stroke-width:6px;}</style></defs><title>BMG_ICONS_Analytics-06</title><path class="cls-1" d="M30.4,52.7l8.28-1.46a10.52,10.52,0,0,1,1.61-7.67l-7.52-3.8A18.87,18.87,0,0,0,30.4,52.7"/><path class="cls-1" d="M67.77,46.11A18.9,18.9,0,0,0,42.5,31.63l3.05,7.83a10.56,10.56,0,0,1,9.9,18.39l5.07,6.7a19.11,19.11,0,0,0,7.25-18.43"/><path class="cls-2" d="M43.93,20.17a29.77,29.77,0,0,0-5.33,1.47l3.05,7.83,0.84,2.16A18.9,18.9,0,0,1,67.77,46.11a19.11,19.11,0,0,1-7.25,18.43,18.65,18.65,0,0,1-4.2,2.41l4.07,9.91A29.68,29.68,0,0,0,43.93,20.17"/><path class="cls-2" d="M32.77,39.77l-2.07-1-7.51-3.79a29.66,29.66,0,0,0,2.68,33l8.37-6.68a18.94,18.94,0,0,1-1.47-21.46"/><path class="cls-3" d="M92.64,94.16V47.54A43.61,43.61,0,1,0,49,91.11H76.45"/></svg>