<svg id="Layer_1" data-name="Layer 1" xmlns="http://www.w3.org/2000/svg" viewBox="0 0 148 95.33"><defs><style>.cls-1{fill:#cf1f43;}.cls-2{fill:#757677;}</style></defs><title>BMG_ICONS_Fileboxes</title><path class="cls-1" d="M143.88,9.46H80.5l-1.58-6A0.56,0.56,0,0,0,78.36,3H42.13a0.55,0.55,0,0,0-.57.54v6.54H72a0.56,0.56,0,0,1,.55.41l1.58,6H137.5A1.5,1.5,0,0,1,139.05,18V84.14h4.83a1.5,1.5,0,0,0,1.55-1.45V10.92A1.5,1.5,0,0,0,143.88,9.46Z"/><path class="cls-1" d="M135.41,18.44H72l-1.58-6A0.56,0.56,0,0,0,69.88,12H33.65a0.55,0.55,0,0,0-.57.54v7a0.5,0.5,0,0,0,0,.17,1.28,1.28,0,0,0,0,.17V91.67a1.5,1.5,0,0,0,1.55,1.45H135.41A1.5,1.5,0,0,0,137,91.67V19.9A1.5,1.5,0,0,0,135.41,18.44Z"/><path class="cls-2" d="M3.46,26.38L7,28.57A31.09,31.09,0,0,0,25.32,73.85a31.11,31.11,0,0,1-3.77-36.1L25.18,40c0.49,0.31,1.07.08,1-.42L24.83,17.73a0.86,0.86,0,0,0-1.11-.7L3.39,25.25C2.93,25.44,3,26.06,3.46,26.38Z"/></svg>