<svg id="Layer_1" data-name="Layer 1" xmlns="http://www.w3.org/2000/svg" viewBox="0 0 99.56 94.52"><defs><style>.cls-1,.cls-2,.cls-4{fill:none;}.cls-1,.cls-2{stroke:#cf1f43;}.cls-1,.cls-2,.cls-3{stroke-linejoin:round;}.cls-1,.cls-4{stroke-width:2px;}.cls-2{stroke-width:6px;}.cls-3{fill:#cf1f43;stroke:#fff;}.cls-4{stroke:#757677;stroke-linecap:round;stroke-miterlimit:10;}</style></defs><title>BMG_ICONS_Release (1)</title><polyline class="cls-1" points="87.42 74.67 77.4 82.37 73.51 78.52"/><polygon class="cls-2" points="28.91 7.86 96.56 7.86 96.56 90.87 3 90.87 3 7.86 24.54 7.86 28.91 7.86"/><rect class="cls-3" x="22.42" y="0.5" width="6.04" height="14.71"/><rect class="cls-3" x="71.1" y="0.5" width="6.04" height="14.71"/><line class="cls-4" x1="29.3" y1="37.24" x2="80.47" y2="37.24"/><line class="cls-4" x1="19.1" y1="37.24" x2="23.29" y2="37.24"/><line class="cls-4" x1="19.1" y1="47.51" x2="23.29" y2="47.51"/><line class="cls-4" x1="19.1" y1="57.53" x2="23.29" y2="57.53"/><line class="cls-4" x1="19.1" y1="67.38" x2="23.29" y2="67.38"/><line class="cls-4" x1="29.3" y1="47.51" x2="80.47" y2="47.51"/><line class="cls-4" x1="29.3" y1="57.53" x2="80.47" y2="57.53"/><line class="cls-4" x1="29.3" y1="67.38" x2="80.47" y2="67.38"/></svg>