<svg id="Layer_1" data-name="Layer 1" xmlns="http://www.w3.org/2000/svg" viewBox="0 0 95.75 96.25"><defs><style>.cls-1{fill:#cf1f43;}.cls-2{fill:#757677;}.cls-3{fill:#fff;}</style></defs><title>BMG_ICONS_Songs (1)</title><path class="cls-1" d="M1.27,48A46.71,46.71,0,0,0,66.62,90.87V59.1A21.68,21.68,0,0,1,26.77,43.54V6.43A46.7,46.7,0,0,0,1.27,48Z"/><path class="cls-1" d="M48,1.33A46.56,46.56,0,0,0,29.69,5.05V36.41A21.67,21.67,0,0,1,69.65,48a22.12,22.12,0,0,1-.11,2.21V89.47A46.71,46.71,0,0,0,48,1.33Z"/><circle class="cls-2" cx="47.98" cy="48.16" r="12.06"/><circle class="cls-3" cx="47.98" cy="48.16" r="2.04"/></svg>