<svg id="Layer_1" data-name="Layer 1" xmlns="http://www.w3.org/2000/svg" viewBox="0 0 93.41 93.76"><defs><style>.cls-1{fill:#cf1f43;stroke:#cf1f43;stroke-miterlimit:10;stroke-width:3px;}</style></defs><title>BMG_ICONS_Capture (1)</title><path class="cls-1" d="M78.67,14.74a45.2,45.2,0,0,0-61.76-2l0,0c-0.73.65-1.45,1.31-2.15,2A45.2,45.2,0,0,0,78.67,78.67a45.21,45.21,0,0,0,0-63.93h0ZM87.9,37.45L62.27,52.25V7.46a42.39,42.39,0,0,1,25.63,30h0ZM34.12,54V39.44L46.7,32.17l12.59,7.27V54L46.7,61.24ZM59.29,6.4V36L20.52,13.61A42.18,42.18,0,0,1,59.29,6.4h0ZM18.12,15.66L43.72,30.45,4.93,52.85A42.17,42.17,0,0,1,18.12,15.66h0ZM5.5,56l25.63-14.8V86A42.39,42.39,0,0,1,5.5,56h0ZM34.12,87V57.41L46,64.26h0L72.89,79.8A42.18,42.18,0,0,1,34.12,87h0Zm41.18-9.26L49.68,63l38.79-22.4A42.18,42.18,0,0,1,75.29,77.75h0Zm0,0"/></svg>