<svg id="Layer_1" data-name="Layer 1" xmlns="http://www.w3.org/2000/svg" viewBox="0 0 114.26 74.97"><defs><style>.cls-1{fill:#cf1f43;stroke:#cf1f43;stroke-miterlimit:10;stroke-width:2.7px;}</style></defs><title>BMG_ICONS_Smart-Match-11</title><path class="cls-1" d="M37.74,72.58v0l39.11-.08h0A35.24,35.24,0,0,0,76.76,2l-39.11,0v0A35.24,35.24,0,0,0,37.74,72.58Zm39-65.8A30.48,30.48,0,1,1,46.32,37.29l0-17.51a19.67,19.67,0,0,1,6.16,4.76l0,12.74A24.32,24.32,0,1,0,76.78,12.93l-13.67,0A35.46,35.46,0,0,0,55.26,6.8ZM47.55,56.88H37.72a19.56,19.56,0,1,1,3.82-38.74l0,19.14A35,35,0,0,0,47.55,56.88Zm9.7-19.21c0-.13,0-0.26,0-0.4V36.92c0,0.13,0,.26,0,0.4v0.36ZM73,56.43l0-19.14a35,35,0,0,0-6-19.59h9.83A19.56,19.56,0,1,1,73,56.43ZM37.66,6.86A30.51,30.51,0,0,1,68.18,37.3l0,17.51A19.67,19.67,0,0,1,62,50.05l0-12.74A24.32,24.32,0,1,0,37.73,61.66l13.67,0a35.46,35.46,0,0,0,7.81,6.13l-21.48,0A30.48,30.48,0,0,1,37.66,6.86Z"/></svg>