<svg id="Layer_1" data-name="Layer 1" xmlns="http://www.w3.org/2000/svg" viewBox="0 0 78 73.5"><defs><style>.cls-1{fill:#757677;}.cls-2{fill:#cf1f43;}</style></defs><title>BMG_ICONS_song_delivery</title><rect class="cls-1" x="1.25" y="65.7" width="6.81" height="6.81" rx="1.13" ry="1.13"/><rect class="cls-1" x="12.47" y="65.7" width="6.81" height="6.81" rx="1.13" ry="1.13"/><rect class="cls-1" x="12.47" y="43.89" width="6.81" height="6.81" rx="1.13" ry="1.13"/><rect class="cls-1" x="12.47" y="32.98" width="6.81" height="6.81" rx="1.13" ry="1.13"/><rect class="cls-1" x="12.47" y="54.79" width="6.81" height="6.81" rx="1.13" ry="1.13"/><rect class="cls-2" x="45.5" y="65.7" width="6.81" height="6.81" rx="1.13" ry="1.13"/><rect class="cls-2" x="45.5" y="54.79" width="6.81" height="6.81" rx="1.13" ry="1.13"/><rect class="cls-2" x="34.6" y="32.98" width="6.81" height="6.81" rx="1.13" ry="1.13"/><rect class="cls-2" x="34.6" y="22.07" width="6.81" height="6.81" rx="1.13" ry="1.13"/><rect class="cls-2" x="34.6" y="43.89" width="6.81" height="6.81" rx="1.13" ry="1.13"/><rect class="cls-2" x="23.69" y="65.7" width="6.81" height="6.81" rx="1.13" ry="1.13"/><rect class="cls-2" x="23.69" y="54.79" width="6.81" height="6.81" rx="1.13" ry="1.13"/><rect class="cls-2" x="23.69" y="43.89" width="6.81" height="6.81" rx="1.13" ry="1.13"/><rect class="cls-2" x="34.6" y="65.7" width="6.81" height="6.81" rx="1.13" ry="1.13"/><rect class="cls-2" x="34.6" y="54.79" width="6.81" height="6.81" rx="1.13" ry="1.13"/><path class="cls-2" d="M75.68,15.33l-2.92.94A23.15,23.15,0,0,0,38.16,5,23.17,23.17,0,0,1,60.53,20.19l-3,1c-0.41.13-.56,0.57-0.26,0.8l13.14,9.7a0.64,0.64,0,0,0,.93-0.3l5.06-15.52C76.47,15.47,76.1,15.2,75.68,15.33Z"/></svg>