<svg id="Layer_1" data-name="Layer 1" xmlns="http://www.w3.org/2000/svg" viewBox="0 0 95.75 95.5"><defs><style>.cls-1{fill:#757677;}.cls-2{fill:#cf1f43;}.cls-3{fill:none;stroke:#cf1f43;stroke-miterlimit:10;stroke-width:6px;}</style></defs><title>BMG_ICONS_Store (1)</title><path class="cls-1" d="M18.11,63h8.2a1.47,1.47,0,0,1,1.47,1.47v0.78a1.47,1.47,0,0,1-1.47,1.47H19.58a1.47,1.47,0,0,1-1.47-1.47V63a0,0,0,0,1,0,0Z"/><path class="cls-1" d="M30.38,63h8.2a1.47,1.47,0,0,1,1.47,1.47v0.78a1.47,1.47,0,0,1-1.47,1.47H31.85a1.47,1.47,0,0,1-1.47-1.47V63a0,0,0,0,1,0,0Z"/><path class="cls-1" d="M42.66,63h8.2a1.47,1.47,0,0,1,1.47,1.47v0.78a1.47,1.47,0,0,1-1.47,1.47H44.13a1.47,1.47,0,0,1-1.47-1.47V63a0,0,0,0,1,0,0Z"/><path class="cls-1" d="M54.93,63h8.2A1.47,1.47,0,0,1,64.6,64.5v0.78a1.47,1.47,0,0,1-1.47,1.47H56.4a1.47,1.47,0,0,1-1.47-1.47V63a0,0,0,0,1,0,0Z"/><path class="cls-1" d="M67.21,63.08h8.2a1.47,1.47,0,0,1,1.47,1.47v0.78a1.47,1.47,0,0,1-1.47,1.47H68.67a1.47,1.47,0,0,1-1.47-1.47V63.08a0,0,0,0,1,0,0Z"/><path class="cls-1" d="M18.11,56.53h8.2A1.47,1.47,0,0,1,27.78,58v0.78a1.47,1.47,0,0,1-1.47,1.47H19.58a1.47,1.47,0,0,1-1.47-1.47V56.53a0,0,0,0,1,0,0Z"/><path class="cls-1" d="M30.38,56.53h8.2A1.47,1.47,0,0,1,40.05,58v0.78a1.47,1.47,0,0,1-1.47,1.47H31.85a1.47,1.47,0,0,1-1.47-1.47V56.53a0,0,0,0,1,0,0Z"/><path class="cls-1" d="M42.66,56.53h8.2A1.47,1.47,0,0,1,52.32,58v0.78a1.47,1.47,0,0,1-1.47,1.47H44.13a1.47,1.47,0,0,1-1.47-1.47V56.53A0,0,0,0,1,42.66,56.53Z"/><path class="cls-1" d="M54.93,56.53h8.2A1.47,1.47,0,0,1,64.6,58v0.78a1.47,1.47,0,0,1-1.47,1.47H56.4a1.47,1.47,0,0,1-1.47-1.47V56.53A0,0,0,0,1,54.93,56.53Z"/><path class="cls-1" d="M67.21,56.58h8.2A1.47,1.47,0,0,1,76.87,58v0.78a1.47,1.47,0,0,1-1.47,1.47H68.67a1.47,1.47,0,0,1-1.47-1.47V56.58A0,0,0,0,1,67.21,56.58Z"/><path class="cls-2" d="M18.11,50h8.2a1.47,1.47,0,0,1,1.47,1.47v0.78a1.47,1.47,0,0,1-1.47,1.47H19.58a1.47,1.47,0,0,1-1.47-1.47V50a0,0,0,0,1,0,0Z"/><path class="cls-2" d="M42.66,50h8.2a1.47,1.47,0,0,1,1.47,1.47v0.78a1.47,1.47,0,0,1-1.47,1.47H44.13a1.47,1.47,0,0,1-1.47-1.47V50a0,0,0,0,1,0,0Z"/><path class="cls-1" d="M54.93,50h8.2a1.47,1.47,0,0,1,1.47,1.47v0.78a1.47,1.47,0,0,1-1.47,1.47H56.4a1.47,1.47,0,0,1-1.47-1.47V50a0,0,0,0,1,0,0Z"/><path class="cls-2" d="M67.21,50.07h8.2a1.47,1.47,0,0,1,1.47,1.47v0.78a1.47,1.47,0,0,1-1.47,1.47H68.67a1.47,1.47,0,0,1-1.47-1.47V50.07A0,0,0,0,1,67.21,50.07Z"/><path class="cls-2" d="M18.11,43.52h8.2A1.47,1.47,0,0,1,27.78,45v0.78a1.47,1.47,0,0,1-1.47,1.47H19.58a1.47,1.47,0,0,1-1.47-1.47V43.52A0,0,0,0,1,18.11,43.52Z"/><path class="cls-2" d="M42.66,43.52h8.2A1.47,1.47,0,0,1,52.32,45v0.78a1.47,1.47,0,0,1-1.47,1.47H44.13a1.47,1.47,0,0,1-1.47-1.47V43.52A0,0,0,0,1,42.66,43.52Z"/><path class="cls-2" d="M67.21,43.57h8.2A1.47,1.47,0,0,1,76.87,45v0.78a1.47,1.47,0,0,1-1.47,1.47H68.67a1.47,1.47,0,0,1-1.47-1.47V43.57A0,0,0,0,1,67.21,43.57Z"/><path class="cls-2" d="M42.66,38h8.2a1.47,1.47,0,0,1,1.47,1.47v0.78a1.47,1.47,0,0,1-1.47,1.47H44.13a1.47,1.47,0,0,1-1.47-1.47V38A0,0,0,0,1,42.66,38Z"/><path class="cls-2" d="M67.21,38.06h8.2a1.47,1.47,0,0,1,1.47,1.47v0.78a1.47,1.47,0,0,1-1.47,1.47H68.67a1.47,1.47,0,0,1-1.47-1.47V38.06a0,0,0,0,1,0,0Z"/><path class="cls-2" d="M67.21,31.51h8.2A1.47,1.47,0,0,1,76.87,33v0.78a1.47,1.47,0,0,1-1.47,1.47H68.67a1.47,1.47,0,0,1-1.47-1.47V31.51a0,0,0,0,1,0,0Z"/><rect class="cls-3" x="4.5" y="4.31" width="86.93" height="86.93" rx="10.89" ry="10.89" transform="translate(-0.21 0.21) rotate(-0.26)"/></svg>